<?xml version="1.0" encoding="utf-8"?>
<!-- Generator: Adobe Illustrator 16.0.0, SVG Export Plug-In . SVG Version: 6.00 Build 0)  -->
<!DOCTYPE svg PUBLIC "-//W3C//DTD SVG 1.1//EN" "http://www.w3.org/Graphics/SVG/1.1/DTD/svg11.dtd">
<svg version="1.1" id="Layer_1" xmlns="http://www.w3.org/2000/svg" xmlns:xlink="http://www.w3.org/1999/xlink" x="0px" y="0px"
	 width="269.167px" height="80.334px" viewBox="0 0 269.167 80.334" enable-background="new 0 0 269.167 80.334"
	 xml:space="preserve">
<rect x="126.163" y="2.021" fill="#A3AEB3" width="0.41" height="76.862"/>
<g>
	<path fill="#006838" d="M38.957,3.508c0,0-7.458,14.111,20.061,22.704c27.519,8.595,0.053,30.484,0.053,30.484
		s8.867-13.146-2.889-19.469C44.423,30.904,31.472,19.829,38.957,3.508"/>
	<path fill="#006838" d="M85.893,33.943c0,0-15.438-7.211-7.61-23.566l2.422-5.874C80.703,4.503,53.456,29.459,85.893,33.943"/>
	<g>
		<path fill="#006838" d="M82.416,56.086c-0.471,0.226-1.387,0.396-2.504,0.396c-4.291,0-6.326-3.496-6.326-8.256
			c0-6.297,3.498-8.752,6.746-8.752c1.142,0,1.935,0.224,2.257,0.447l-0.544,2.729c-0.373-0.175-0.795-0.322-1.516-0.322
			c-1.834,0-3.494,1.585-3.494,5.728c0,3.989,1.512,5.553,3.494,5.553c0.547,0,1.168-0.123,1.562-0.246L82.416,56.086z"/>
		<path fill="#006838" d="M84.201,39.87c1.017-0.198,2.307-0.321,3.547-0.321c1.783,0,3.396,0.273,4.461,1.241
			c1.018,0.915,1.339,2.03,1.339,3.468c0,1.783-0.891,3.396-2.577,4.165v0.051c1.139,0.473,1.708,1.514,2.032,3.321
			c0.322,1.858,0.769,3.918,1.064,4.539h-3.394c-0.226-0.47-0.598-2.16-0.844-4.017c-0.3-2.059-0.818-2.652-1.884-2.652h-0.495
			v6.669h-3.25V39.87L84.201,39.87z M87.451,47.16h0.594c1.414,0,2.207-1.144,2.207-2.603c0-1.438-0.567-2.433-2.006-2.48
			c-0.299,0-0.623,0.025-0.795,0.101V47.16z"/>
		<path fill="#006838" d="M99.007,39.623v10.858c0,2.455,0.72,3.197,1.587,3.197c0.942,0,1.612-0.668,1.612-3.197V39.623h3.246
			v10.289c0,4.289-1.637,6.616-4.833,6.616c-3.496,0-4.858-2.401-4.858-6.592V39.623H99.007z"/>
		<path fill="#006838" d="M107.09,54.424l5.308-11.9V42.45h-4.81v-2.826h8.453v2.403l-5.056,11.403v0.08h5.031v2.823h-8.925V54.424
			L107.09,54.424z"/>
	</g>
	<path fill="#006838" d="M1.469,53.013c0.673,0.37,1.838,0.643,2.751,0.643c1.515,0,2.285-0.793,2.285-1.883
		c0-1.215-0.746-1.81-2.16-2.729c-2.278-1.39-3.147-3.146-3.147-4.659c0-2.679,1.785-4.91,5.26-4.91
		c1.114,0,2.153,0.298,2.625,0.595L8.563,42.87c-0.472-0.296-1.19-0.567-2.104-0.567c-1.392,0-2.06,0.843-2.06,1.734
		c0,0.991,0.494,1.513,2.278,2.604c2.232,1.336,3.027,3.023,3.027,4.782c0,3.052-2.26,5.06-5.506,5.06
		c-1.342,0-2.628-0.348-3.199-0.672L1.469,53.013z"/>
	<path fill="#006838" d="M14.268,52.515l-0.744,3.819h-3.147l3.617-16.711h3.896l3.245,16.711h-3.149l-0.719-3.819H14.268z
		 M16.968,49.985l-0.545-3.496c-0.174-1.018-0.395-2.702-0.545-3.792h-0.074c-0.174,1.114-0.422,2.825-0.596,3.792l-0.619,3.496
		H16.968z"/>
	<path fill="#006838" d="M22.972,56.334V39.623h2.975l2.578,6.545c0.522,1.289,1.315,3.446,1.785,4.883h0.053
		c-0.103-1.759-0.321-4.657-0.321-7.733v-3.693h2.847v16.711h-2.974l-2.552-6.348c-0.569-1.411-1.313-3.545-1.713-5.033h-0.049
		c0.101,1.688,0.223,4.266,0.223,7.637v3.744L22.972,56.334L22.972,56.334z"/>
	<path fill="#006838" d="M37.574,42.624h-2.947v-3.001h9.171v3.001h-2.972v13.71h-3.252V42.624L37.574,42.624z"/>
	<path fill="#006838" d="M47.348,52.515l-0.742,3.819h-3.147l3.619-16.711h3.893l3.246,16.711H51.07l-0.719-3.819H47.348z
		 M50.05,49.985l-0.547-3.496c-0.168-1.018-0.395-2.702-0.541-3.792h-0.078c-0.174,1.114-0.42,2.825-0.594,3.792l-0.619,3.496H50.05
		z"/>
	<path fill="#AF1F24" d="M64.94,14.131c0,3.068-2.482,5.556-5.554,5.556c-3.064,0-5.553-2.487-5.553-5.556
		c0-3.065,2.487-5.555,5.553-5.555C62.458,8.576,64.94,11.065,64.94,14.131"/>
	<g>
		<path fill="#BA282E" d="M19.564,61.883v2.888h1.651v-2.888h1.585v7.212h-1.585v-3.021h-1.651v3.021h-1.58v-7.212H19.564z"/>
		<path fill="#BA282E" d="M35.017,65.36c0,2.714-1.086,3.812-2.631,3.812c-1.848,0-2.567-1.729-2.567-3.708
			c0-1.973,0.877-3.67,2.688-3.67C34.459,61.795,35.017,63.713,35.017,65.36z M31.458,65.481c0,1.643,0.351,2.479,0.986,2.479
			c0.677,0,0.931-1.069,0.931-2.537c0-1.264-0.219-2.405-0.94-2.405C31.808,63.019,31.458,63.938,31.458,65.481z"/>
		<path fill="#BA282E" d="M41.861,67.661c0.326,0.156,0.89,0.277,1.335,0.277c0.738,0,1.113-0.35,1.113-0.814
			c0-0.529-0.363-0.779-1.049-1.174c-1.111-0.602-1.533-1.362-1.533-2.012c0-1.158,0.867-2.123,2.556-2.123
			c0.545,0,1.049,0.129,1.283,0.261L45.31,63.28c-0.23-0.129-0.582-0.244-1.025-0.244c-0.68,0-1,0.365-1,0.747
			c0,0.43,0.24,0.655,1.107,1.125c1.088,0.573,1.473,1.301,1.473,2.067c0,1.312-1.1,2.18-2.678,2.18
			c-0.654,0-1.277-0.153-1.558-0.286L41.861,67.661z"/>
		<path fill="#BA282E" d="M52.827,61.989c0.439-0.082,1.045-0.141,1.648-0.141c0.939,0,1.689,0.117,2.209,0.557
			c0.484,0.375,0.699,0.975,0.699,1.584c0,0.779-0.266,1.337-0.688,1.734c-0.508,0.479-1.313,0.689-1.981,0.689
			c-0.104,0-0.199,0-0.312-0.01v2.688h-1.575V61.989L52.827,61.989z M54.403,65.272c0.084,0.011,0.17,0.011,0.264,0.011
			c0.799,0,1.148-0.501,1.148-1.179c0-0.631-0.289-1.119-1.027-1.119c-0.143,0-0.291,0.021-0.385,0.051V65.272L54.403,65.272z"/>
		<path fill="#BA282E" d="M65.946,61.883v7.212h-1.584v-7.212H65.946z"/>
		<path fill="#BA282E" d="M74.263,63.176H72.83v-1.293h4.463v1.293h-1.446v5.919h-1.584V63.176L74.263,63.176z"/>
		<path fill="#BA282E" d="M85.029,67.442l-0.357,1.65h-1.532l1.762-7.211h1.896l1.578,7.211h-1.533l-0.348-1.65H85.029z
			 M86.348,66.353l-0.267-1.508c-0.082-0.438-0.188-1.171-0.264-1.632h-0.037c-0.086,0.478-0.203,1.22-0.293,1.632l-0.299,1.508
			H86.348z"/>
		<path fill="#BA282E" d="M95.282,61.883h1.576v6.021h2.078v1.189h-3.654V61.883z"/>
	</g>
</g>
<path fill="#3877B2" d="M164.668,50.341h-10.553v-0.912c1.972,0.107,2.958-0.244,2.958-1.055c0-0.58-0.985-3.17-2.958-7.777h-8.861
	c-1.708,4.147-2.562,6.611-2.562,7.395c0,1.039,1.066,1.52,3.201,1.438v0.912h-9.315v-0.912c1.471-0.08,2.523-0.461,3.158-1.134
	c0.364-0.38,0.878-1.338,1.541-2.877l8.972-20.919l0.992-0.366c0.905,2.146,3.828,9.317,8.771,21.509
	c0.553,1.361,1.08,2.282,1.58,2.754c0.675,0.646,1.699,0.992,3.077,1.033L164.668,50.341L164.668,50.341z M153.551,39.08
	l-3.854-9.669l-0.082,0.009l-3.803,9.66H153.551z"/>
<path fill="#A3AEB3" d="M193.327,34.111l0.031-0.042c-0.005,0.015-0.011,0.028-0.017,0.042H193.327z"/>
<g>
	<g>
		<path fill="#97A1A7" d="M145.603,56.858c3.206,0,4.809,2.533,4.809,5.324s-1.603,5.324-4.809,5.324
			c-3.221,0-4.824-2.533-4.824-5.324S142.381,56.858,145.603,56.858z M145.603,66.679c2.69,0,3.836-2.263,3.836-4.494
			c0-2.233-1.146-4.494-3.836-4.494c-2.705,0-3.851,2.261-3.851,4.494C141.752,64.416,142.898,66.679,145.603,66.679z"/>
		<path fill="#97A1A7" d="M153.592,57.073h6.483v0.83h-5.51v3.693h4.896v0.829h-4.896v4.866h-0.974V57.073z"/>
		<path fill="#97A1A7" d="M161.854,57.073h8.101v0.83h-3.564v9.39h-0.973v-9.39h-3.563V57.073z"/>
		<path fill="#97A1A7" d="M174.595,57.073h1.088l4.007,10.22h-1.044l-1.245-3.179h-4.651l-1.23,3.179h-1.046L174.595,57.073z
			 M173.049,63.285h4.021l-1.975-5.238L173.049,63.285z"/>
		<path fill="#97A1A7" d="M182.298,57.073h0.975v9.39h5.725v0.83h-6.699V57.073z"/>
		<path fill="#97A1A7" d="M191.634,57.073h1.431l3.535,8.96l3.521-8.96h1.432v10.22h-0.974v-8.831h-0.027l-3.493,8.831h-0.916
			l-3.506-8.831h-0.029v8.831h-0.973V57.073z"/>
		<path fill="#97A1A7" d="M209.543,56.858c3.207,0,4.81,2.533,4.81,5.324s-1.603,5.324-4.81,5.324c-3.22,0-4.823-2.533-4.823-5.324
			S206.324,56.858,209.543,56.858z M209.543,66.679c2.691,0,3.837-2.263,3.837-4.494c0-2.233-1.146-4.494-3.837-4.494
			c-2.705,0-3.85,2.261-3.85,4.494C205.694,64.416,206.838,66.679,209.543,66.679z"/>
		<path fill="#97A1A7" d="M217.549,57.073h0.973v9.39h5.726v0.83h-6.698V57.073z"/>
		<path fill="#97A1A7" d="M231.192,56.858c3.206,0,4.81,2.533,4.81,5.324s-1.604,5.324-4.81,5.324c-3.221,0-4.823-2.533-4.823-5.324
			S227.97,56.858,231.192,56.858z M231.192,66.679c2.691,0,3.836-2.263,3.836-4.494c0-2.233-1.145-4.494-3.836-4.494
			c-2.705,0-3.851,2.261-3.851,4.494C227.341,64.416,228.487,66.679,231.192,66.679z"/>
		<path fill="#97A1A7" d="M247.927,67.293h-0.701l-0.129-1.86h-0.028c-0.688,1.461-2.062,2.075-3.535,2.075
			c-3.221,0-4.823-2.532-4.823-5.323s1.603-5.324,4.823-5.324c2.146,0,3.893,1.158,4.265,3.392h-0.973
			c-0.129-1.174-1.345-2.562-3.292-2.562c-2.706,0-3.851,2.261-3.851,4.494c0,2.231,1.145,4.494,3.851,4.494
			c2.262,0,3.578-1.59,3.535-3.75h-3.479v-0.83h4.337V67.293z"/>
		<path fill="#97A1A7" d="M251.552,57.073h0.973v10.22h-0.973V57.073z"/>
		<path fill="#97A1A7" d="M259.325,57.073h1.088l4.009,10.22h-1.045l-1.245-3.179h-4.651l-1.231,3.179h-1.045L259.325,57.073z
			 M257.78,63.285h4.021l-1.977-5.238L257.78,63.285z"/>
	</g>
</g>
<path fill="#3877B2" d="M265.088,48.396c-0.498-0.472-1.024-1.393-1.578-2.754c-4.943-12.191-7.865-19.362-8.771-21.509
	l-0.992,0.366l-8.972,20.919c-0.662,1.539-1.175,2.497-1.54,2.877c-0.093,0.099-0.195,0.188-0.306,0.272
	c-0.026,0.021-0.056,0.037-0.085,0.061c-0.08,0.057-0.164,0.111-0.252,0.163c-0.322,0.174-0.686,0.263-1.097,0.263
	c-0.569,0-1.086-0.193-1.492-0.527c-0.217-0.188-0.42-0.408-0.609-0.676l-6.825-9.847c3.849-1.334,5.771-3.629,5.771-6.884
	c0-4.254-3.253-6.38-9.762-6.38h-7.23v19.887c0,1.933-0.148,3.134-0.445,3.604c-0.474,0.744-1.661,1.144-3.563,1.197v0.911h11.584
	v-0.911c-1.823-0.043-2.976-0.477-3.464-1.303c-0.31-0.516-0.464-1.688-0.464-3.518v-5.59h4.232l7.373,11.32h3.475h2.966h1.962
	c0,0,2.758-7.314,3.521-9.186l0.208-0.543l0.012,0.006c0.002-0.008,0.005-0.016,0.009-0.021h8.861
	c1.973,4.607,2.957,7.197,2.957,7.777c0,0.811-0.984,1.162-2.957,1.055v0.912h10.553v-0.912
	C266.789,49.388,265.763,49.041,265.088,48.396z M227.526,37.926h-2.531v-11.24c0-0.542,0.223-0.811,0.668-0.811h2.167
	c2.025,0,3.631,0.506,4.812,1.52c1.183,1.012,1.771,2.437,1.771,4.272c0,1.997-0.596,3.541-1.782,4.63
	C231.443,37.382,229.74,37.926,227.526,37.926z M249.312,39.08l3.803-9.66l0.08-0.009l3.856,9.669H249.312z"/>
<path fill="#68747A" d="M202.989,27.215c-4.461,0-8.247,2.846-9.672,6.816h1.84c1.331-3.003,4.333-5.102,7.832-5.102
	c4.732,0,8.57,3.836,8.57,8.569c0,4.731-3.838,8.569-8.57,8.569c-3.527,0-6.555-2.133-7.87-5.178h-1.829
	c1.402,4.01,5.209,6.893,9.698,6.893c5.68,0,10.284-4.605,10.284-10.284C213.273,31.82,208.668,27.215,202.989,27.215z"/>
<path fill="#97A1A7" d="M202.989,25.501c-3.319,0-6.322,1.351-8.495,3.532l0.036,0.036l1.173,1.173
	c1.862-1.87,4.438-3.028,7.286-3.028c5.68,0,10.284,4.605,10.284,10.283c0,5.679-4.604,10.283-10.284,10.283
	c-1.384,0-2.703-0.275-3.909-0.773v0.012l-0.636,1.578c1.402,0.576,2.936,0.898,4.545,0.898c6.627,0,11.997-5.373,11.997-11.998
	S209.616,25.501,202.989,25.501z"/>
<path fill="#305E83" d="M202.989,22.073c-2.108,0-4.116,0.424-5.946,1.189l0.04,0.062l0.63,1.518
	c1.625-0.678,3.406-1.054,5.277-1.054c7.572,0,13.711,6.139,13.711,13.71c0,7.571-6.139,13.711-13.711,13.711
	c-6.381,0-11.739-4.356-13.271-10.258h-1.739h-0.022c1.568,6.854,7.7,11.973,15.032,11.973c8.52,0,15.425-6.907,15.425-15.426
	C218.414,28.979,211.508,22.073,202.989,22.073z"/>
<path fill="#A2C2D1" d="M202.989,20.359c-7.229,0-13.407,4.479-15.925,10.81h1.864c2.418-5.36,7.799-9.097,14.062-9.097
	c8.52,0,15.426,6.906,15.426,15.425c0,8.518-6.906,15.426-15.426,15.426c-5.22,0-9.831-2.597-12.622-6.562L189,47.317l-0.037,0.021
	c3.102,4.41,8.226,7.297,14.026,7.297c9.465,0,17.14-7.675,17.14-17.139S212.454,20.359,202.989,20.359z"/>
<path fill="#3877B2" d="M181.68,46.593c0,0.959-0.081,1.564-0.241,1.823c-0.488,0.81-2.102,1.215-4.842,1.215
	c-4.347,0-7.473-1.358-9.377-4.069c-1.782-2.512-2.674-5.267-2.674-8.264c0-7.899,3.747-11.85,11.239-11.85
	c2.466,0,4.363,0.454,5.69,1.359c1.281,0.873,2.198,2.331,2.757,4.362h1.079c-0.343-2.67-0.566-4.679-0.675-6.024
	c-2.263-0.675-5.034-1.013-8.31-1.013c-4.597,0-8.399,1.23-11.403,3.687c-3.128,2.552-4.691,5.886-4.691,10.006
	c0,3.914,1.579,7.105,4.738,9.576c2.999,2.351,6.705,3.525,11.122,3.525c2.064,0,5.231-0.521,9.498-1.562
	c-0.176-0.82-0.264-2.021-0.264-3.604c0-3.226,0.127-4.98,0.385-5.265c0.323-0.351,1.062-0.581,2.208-0.688v-0.893h-6.238v7.678
	H181.68z"/>
<path fill="#3877B2" d="M202.989,23.788v0.054l0.004,0.002l-0.002,1.658c6.626,0,11.996,5.373,11.996,11.997
	c0,6.625-5.37,11.998-11.997,11.998c-4.932,0-9.162-2.979-11.006-7.23l-1.571,0.686c2.109,4.855,6.942,8.259,12.577,8.259
	c7.572,0,13.711-6.14,13.711-13.711C216.7,29.927,210.561,23.788,202.989,23.788z"/>
</svg>
